# xmcd
#
# Track frame offsets:
#   150
#   15218
#   28642
#   43671
#   59670
#   75908
#   91299
#   106161
#   123149
#   134931
#   151731
#   165953
#   178878
#   192430
#
# Disc length: 2785 seconds
#
# Revision: 0
# Processed by: cddbd v1.5.2PL0 Copyright (c) Steve Scherf et al.
# Submitted via: uFREEDB ActiveX Control 1.5
#
DISCID=a80adf0e
DTITLE=Zé Henrique e Gabriel - Ta Tudo Ok
DYEAR=1900
DGENRE=Sertanejo
TTITLE0=Tremele
TTITLE1=Instinto Animal
TTITLE2=Dona Do Meu Destino
TTITLE3=Rodeiomania
TTITLE4=Arrasou
TTITLE5=Feminina
TTITLE6=A Pancada Da Paixao
TTITLE7=Mais Um Apaixonado
TTITLE8=Isso e Que e Paixao
TTITLE9=Mala Amarela
TTITLE10=Pinga Na Cabeca
TTITLE11=Quando Digo Eu Te Amo
TTITLE12=Jeito Cowboy
TTITLE13=Peao
EXTD=
EXTT0=
EXTT1=
EXTT2=
EXTT3=
EXTT4=
EXTT5=
EXTT6=
EXTT7=
EXTT8=
EXTT9=
EXTT10=
EXTT11=
EXTT12=
EXTT13=
PLAYORDER=
